<svg xmlns="http://www.w3.org/2000/svg" version="1.1" xmlns:xlink="http://www.w3.org/1999/xlink" xmlns:svgjs="http://svgjs.dev/svgjs" width="1000" height="623" viewBox="0 0 1000 623"><g transform="matrix(1,0,0,1,-0.6060606060606233,0.2522267206477409)"><svg viewBox="0 0 396 247" data-background-color="#282634" preserveAspectRatio="xMidYMid meet" height="623" width="1000" xmlns="http://www.w3.org/2000/svg" xmlns:xlink="http://www.w3.org/1999/xlink"><g id="tight-bounds" transform="matrix(1,0,0,1,0.2400000000000091,-0.09999999999999432)"><svg viewBox="0 0 395.52 247.2" height="247.2" width="395.52"><g><svg></svg></g><g><svg viewBox="0 0 395.52 247.2" height="247.2" width="395.52"><g transform="matrix(1,0,0,1,75.54432,48.588724844036705)"><svg viewBox="0 0 244.43135999999998 150.02255031192658" height="150.02255031192658" width="244.43135999999998"><g><svg viewBox="0 0 244.43135999999998 150.02255031192658" height="150.02255031192658" width="244.43135999999998"><g><svg viewBox="0 0 244.43135999999998 150.02255031192658" height="150.02255031192658" width="244.43135999999998"><g><svg viewBox="0 0 244.43135999999998 150.02255031192658" height="150.02255031192658" width="244.43135999999998"><g id="textblocktransform"><svg viewBox="0 0 244.43135999999998 150.02255031192658" height="150.02255031192658" width="244.43135999999998" id="textblock"><g><svg viewBox="0 0 244.43135999999998 150.02255031192658" height="150.02255031192658" width="244.43135999999998"><g transform="matrix(1,0,0,1,0,0)"><svg width="244.43135999999998" viewBox="0.8500000238418579 -32.900001525878906 54.5 33.45000076293945" height="150.02255031192658" data-palette-color="#ff4057"><path d="M17.6-32.9Q21.9-32.9 25.7-31.55L25.7-31.55 24-23.6 23.35-23.2Q22.05-23.9 20.35-24.33 18.65-24.75 17.2-24.75L17.2-24.75Q14.15-24.75 12.8-22.98 11.45-21.2 11.45-17.05L11.45-17.05Q11.45-12.2 13-9.98 14.55-7.75 17.85-7.75L17.85-7.75Q19.25-7.75 20.98-8.03 22.7-8.3 24-8.8L24-8.8 24.8-8.3 24-0.4Q21 0.55 17.05 0.55L17.05 0.55Q9 0.55 4.93-3.65 0.85-7.85 0.85-15.9L0.85-15.9Q0.85-24 5.23-28.45 9.6-32.9 17.6-32.9L17.6-32.9ZM44.05-32.4Q49.5-32.4 52.42-29.73 55.35-27.05 55.35-22.1L55.35-22.1Q55.35-18.25 53.55-15.33 51.75-12.4 48.45-10.78 45.15-9.15 40.85-9.15L40.85-9.15 38.4-9.15 38.75 0 28.7 0 29.2-9.5 28.7-32.35 44.05-32.4ZM42.25-16.15Q43.6-16.9 44.22-18.07 44.85-19.25 44.85-21.1L44.85-21.1Q44.85-23.3 43.8-24.33 42.75-25.35 40.5-25.45L40.5-25.45 38.7-25.3 38.5-16.35 42.25-16.15Z" opacity="1" transform="matrix(1,0,0,1,0,0)" fill="#ff4057" class="wordmark-text-0" data-fill-palette-color="primary" id="text-0"></path></svg></g></svg></g></svg></g></svg></g></svg></g></svg></g></svg></g><g><path d="M0 123.6c0-68.262 55.338-123.6 123.6-123.6 31.336 0 59.948 11.661 81.734 30.88l-10.636 0c-19.695-15.125-44.347-24.116-71.098-24.115-64.526 0-116.835 52.309-116.835 116.835 0 64.526 52.309 116.835 116.835 116.835 26.752 0 51.403-8.991 71.098-24.115h10.636c-21.786 19.219-50.398 30.88-81.734 30.88-68.262 0-123.6-55.338-123.6-123.6z" fill="#ff4057" stroke="transparent" data-fill-palette-color="tertiary"></path></g></svg></g><defs></defs></svg><rect width="395.52" height="247.2" fill="none" stroke="none" visibility="hidden"></rect></g></svg></g></svg>